<svg xmlns="http://www.w3.org/2000/svg" xmlns:xlink="http://www.w3.org/1999/xlink" version="1.1" width="256" height="256" viewBox="0 0 256 256" xml:space="preserve">

<defs>
</defs>
<g style="stroke: none; stroke-width: 0; stroke-dasharray: none; stroke-linecap: butt; stroke-linejoin: miter; stroke-miterlimit: 10; fill: currentColor; fill-rule: nonzero; opacity: 1;" transform="translate(1.4065934065934016 1.4065934065934016) scale(2.81 2.81)" >
	<path d="M 73.424 65.665 H 28.639 c -4.812 0 -9.042 -3.414 -10.057 -8.118 l -6.662 -30.853 c -0.127 -0.591 0.019 -1.208 0.399 -1.679 c 0.379 -0.47 0.952 -0.744 1.556 -0.744 H 88 c 0.603 0 1.173 0.271 1.553 0.739 s 0.528 1.082 0.404 1.671 l -6.464 30.807 C 82.499 62.227 78.264 65.665 73.424 65.665 z M 16.353 28.271 l 6.139 28.432 c 0.621 2.875 3.206 4.962 6.147 4.962 h 44.785 c 2.959 0 5.547 -2.102 6.155 -4.998 l 5.958 -28.396 H 16.353 z" style="stroke: none; stroke-width: 1; stroke-dasharray: none; stroke-linecap: butt; stroke-linejoin: miter; stroke-miterlimit: 10; fill: currentColor; fill-rule: nonzero; opacity: 1;" transform=" matrix(1 0 0 1 0 0) " stroke-linecap="round" />
	<path d="M 28.376 85.419 c -4.527 0 -8.209 -3.683 -8.209 -8.209 c 0 -4.527 3.683 -8.21 8.209 -8.21 s 8.209 3.683 8.209 8.21 C 36.586 81.736 32.903 85.419 28.376 85.419 z M 28.376 73 c -2.321 0 -4.209 1.889 -4.209 4.21 s 1.888 4.209 4.209 4.209 s 4.209 -1.888 4.209 -4.209 S 30.698 73 28.376 73 z" style="stroke: none; stroke-width: 1; stroke-dasharray: none; stroke-linecap: butt; stroke-linejoin: miter; stroke-miterlimit: 10; fill: currentColor; fill-rule: nonzero; opacity: 1;" transform=" matrix(1 0 0 1 0 0) " stroke-linecap="round" />
	<path d="M 72.937 85.419 c -4.526 0 -8.209 -3.683 -8.209 -8.209 c 0 -4.527 3.683 -8.21 8.209 -8.21 c 4.527 0 8.21 3.683 8.21 8.21 C 81.146 81.736 77.464 85.419 72.937 85.419 z M 72.937 73 c -2.321 0 -4.209 1.889 -4.209 4.21 s 1.888 4.209 4.209 4.209 s 4.21 -1.888 4.21 -4.209 S 75.258 73 72.937 73 z" style="stroke: none; stroke-width: 1; stroke-dasharray: none; stroke-linecap: butt; stroke-linejoin: miter; stroke-miterlimit: 10; fill: currentColor; fill-rule: nonzero; opacity: 1;" transform=" matrix(1 0 0 1 0 0) " stroke-linecap="round" />
	<path d="M 13.873 28.272 c -0.922 0 -1.75 -0.641 -1.953 -1.579 l -1.297 -6.009 c -0.464 -2.15 -2.398 -3.711 -4.599 -3.711 H 2 c -1.104 0 -2 -0.896 -2 -2 s 0.896 -2 2 -2 h 4.023 c 4.071 0 7.649 2.888 8.509 6.867 l 1.297 6.01 c 0.233 1.08 -0.453 2.144 -1.533 2.377 C 14.154 28.257 14.012 28.272 13.873 28.272 z" style="stroke: none; stroke-width: 1; stroke-dasharray: none; stroke-linecap: butt; stroke-linejoin: miter; stroke-miterlimit: 10; fill: currentColor; fill-rule: nonzero; opacity: 1;" transform=" matrix(1 0 0 1 0 0) " stroke-linecap="round" />
	<path d="M 44.207 28.271 H 24.481 c -1.104 0 -2 -0.896 -2 -2 V 15.223 c 0 -1.104 0.896 -2 2 -2 h 19.726 c 1.104 0 2 0.896 2 2 v 11.049 C 46.207 27.376 45.312 28.271 44.207 28.271 z M 26.481 24.271 h 15.726 v -7.049 H 26.481 V 24.271 z" style="stroke: none; stroke-width: 1; stroke-dasharray: none; stroke-linecap: butt; stroke-linejoin: miter; stroke-miterlimit: 10; fill: currentColor; fill-rule: nonzero; opacity: 1;" transform=" matrix(1 0 0 1 0 0) " stroke-linecap="round" />
	<path d="M 66.142 28.271 H 44.207 c -1.104 0 -2 -0.896 -2 -2 v -9.049 h -5.63 c -1.104 0 -2 -0.896 -2 -2 V 6.581 c 0 -1.104 0.896 -2 2 -2 h 29.564 c 1.104 0 2 0.896 2 2 v 19.69 C 68.142 27.376 67.246 28.271 66.142 28.271 z M 46.207 24.271 h 17.935 V 8.581 H 38.577 v 4.642 h 5.63 c 1.104 0 2 0.896 2 2 V 24.271 z" style="stroke: none; stroke-width: 1; stroke-dasharray: none; stroke-linecap: butt; stroke-linejoin: miter; stroke-miterlimit: 10; fill: currentColor; fill-rule: nonzero; opacity: 1;" transform=" matrix(1 0 0 1 0 0) " stroke-linecap="round" />
	<path d="M 77.617 28.271 c -1.104 0 -2 -0.896 -2 -2 c 0 -5.225 -4.251 -9.476 -9.476 -9.476 c -1.104 0 -2 -0.896 -2 -2 s 0.896 -2 2 -2 c 7.431 0 13.476 6.045 13.476 13.476 C 79.617 27.376 78.722 28.271 77.617 28.271 z" style="stroke: none; stroke-width: 1; stroke-dasharray: none; stroke-linecap: butt; stroke-linejoin: miter; stroke-miterlimit: 10; fill: currentColor; fill-rule: nonzero; opacity: 1;" transform=" matrix(1 0 0 1 0 0) " stroke-linecap="round" />
	<path d="M 50.938 55.458 c -1.104 0 -2 -0.896 -2 -2 V 34.832 c 0 -1.104 0.896 -2 2 -2 s 2 0.896 2 2 v 18.626 C 52.938 54.563 52.042 55.458 50.938 55.458 z" style="stroke: none; stroke-width: 1; stroke-dasharray: none; stroke-linecap: butt; stroke-linejoin: miter; stroke-miterlimit: 10; fill: currentColor; fill-rule: nonzero; opacity: 1;" transform=" matrix(1 0 0 1 0 0) " stroke-linecap="round" />
	<path d="M 66.178 55.458 c -0.078 0 -0.156 -0.004 -0.235 -0.014 c -1.097 -0.128 -1.882 -1.121 -1.754 -2.219 L 66.365 34.6 c 0.129 -1.098 1.13 -1.881 2.219 -1.754 c 1.097 0.128 1.882 1.122 1.754 2.218 L 68.161 53.69 C 68.042 54.708 67.178 55.458 66.178 55.458 z" style="stroke: none; stroke-width: 1; stroke-dasharray: none; stroke-linecap: butt; stroke-linejoin: miter; stroke-miterlimit: 10; fill: currentColor; fill-rule: nonzero; opacity: 1;" transform=" matrix(1 0 0 1 0 0) " stroke-linecap="round" />
	<path d="M 35.697 55.458 c -0.953 0 -1.797 -0.684 -1.967 -1.654 l -3.265 -18.627 c -0.191 -1.088 0.537 -2.125 1.625 -2.315 c 1.085 -0.191 2.124 0.536 2.315 1.625 l 3.265 18.626 c 0.191 1.088 -0.537 2.125 -1.625 2.315 C 35.928 55.448 35.812 55.458 35.697 55.458 z" style="stroke: none; stroke-width: 1; stroke-dasharray: none; stroke-linecap: butt; stroke-linejoin: miter; stroke-miterlimit: 10; fill: currentColor; fill-rule: nonzero; opacity: 1;" transform=" matrix(1 0 0 1 0 0) " stroke-linecap="round" />
</g>
</svg>