<svg xmlns="http://www.w3.org/2000/svg" xmlns:xlink="http://www.w3.org/1999/xlink" version="1.1" width="256" height="256" viewBox="0 0 256 256" xml:space="preserve">

<defs>
</defs>
<g style="stroke: none; stroke-width: 0; stroke-dasharray: none; stroke-linecap: butt; stroke-linejoin: miter; stroke-miterlimit: 10; fill: none; fill-rule: nonzero; opacity: 1;" transform="translate(1.4065934065934016 1.4065934065934016) scale(2.81 2.81)" >
	<path d="M 69.303 84.203 H 20.601 c -1.657 0 -3 -1.343 -3 -3 V 34.522 l -4.898 2.175 c -1.392 0.619 -3.026 0.095 -3.801 -1.216 L 0.417 21.116 c -0.833 -1.41 -0.381 -3.227 1.015 -4.083 L 19.033 6.239 c 0.472 -0.289 1.015 -0.442 1.568 -0.442 h 10.102 c 1.064 0 2.049 0.564 2.587 1.481 c 2.928 4.99 6.862 9.115 11.709 12.284 c 4.848 -3.169 8.781 -7.294 11.71 -12.284 c 0.538 -0.917 1.522 -1.481 2.587 -1.481 h 10.007 c 0.551 0 1.092 0.152 1.562 0.439 L 88.562 17.03 c 1.4 0.854 1.854 2.674 1.021 4.087 l -8.485 14.365 c -0.774 1.311 -2.406 1.833 -3.803 1.215 l -4.991 -2.221 v 46.727 C 72.303 82.86 70.961 84.203 69.303 84.203 z M 23.601 78.203 h 42.702 V 29.859 c 0 -1.016 0.514 -1.962 1.365 -2.516 c 0.853 -0.553 1.926 -0.638 2.854 -0.226 l 6.768 3.011 l 5.622 -9.517 l -14.452 -8.815 h -7.485 c -3.661 5.713 -8.516 10.377 -14.45 13.88 c -0.941 0.556 -2.11 0.556 -3.05 0 c -5.935 -3.503 -10.789 -8.167 -14.451 -13.88 h -7.577 L 7.084 20.605 l 5.626 9.524 l 6.674 -2.964 c 0.928 -0.412 2 -0.328 2.853 0.227 c 0.851 0.553 1.365 1.499 1.365 2.515 V 78.203 z" style="stroke: none; stroke-width: 1; stroke-dasharray: none; stroke-linecap: butt; stroke-linejoin: miter; stroke-miterlimit: 10; fill: rgb(0,0,0); fill-rule: nonzero; opacity: 1;" transform=" matrix(1 0 0 1 0 0) " stroke-linecap="round" />
	<path d="M 55.824 35.837 c -2.896 -2.896 -7.609 -2.896 -10.506 0 L 45 36.155 l -0.318 -0.318 c -2.896 -2.896 -7.609 -2.896 -10.506 0 c -2.895 2.896 -2.895 7.609 0 10.505 l 9.41 9.41 c 0.375 0.375 0.884 0.586 1.414 0.586 s 1.039 -0.211 1.414 -0.586 l 9.41 -9.41 C 57.227 44.94 58 43.074 58 41.09 C 58 39.106 57.227 37.24 55.824 35.837 z" style="stroke: none; stroke-width: 1; stroke-dasharray: none; stroke-linecap: butt; stroke-linejoin: miter; stroke-miterlimit: 10; fill: rgb(0,0,0); fill-rule: nonzero; opacity: 1;" transform=" matrix(1 0 0 1 0 0) " stroke-linecap="round" />
</g>
</svg>